# xmcd
#
# Track frame offsets:
#	150
#	9207
#	15025
#	26430
#	29180
#	39697
#	47397
#	57137
#	69337
#	77235
#	89720
#	98407
#	109182
#	113147
#	134730
#	167330
#
# Disc length: 2357 seconds
#
# Revision: 6
# Processed by: cddbd v1.5.2PL0 Copyright (c) Steve Scherf et al.
# Submitted via: EZCDAudioConverter 2.1.7.1
#
DISCID=be093310
DTITLE=V/A - Pecker
DYEAR=1998
DGENRE=
TTITLE0=Paul Evans - Happy-Go-Lucky-Me
TTITLE1=Stewart Copeland - The Love Chase
TTITLE2=Leroy Pullins - I'm A Nut
TTITLE3=Stewart Copeland - Memama
TTITLE4=Nutty Squirrels - Uh! Oh! (Part 1)
TTITLE5=Vicki Randle and Stewart Copeland - Straight Boys
TTITLE6=Billy Williams - I'm Gonna Sit Right Down And Write Myself A Letter
TTITLE7=Henhouse Five Plus Too - In The Mood
TTITLE8=Stewart Copeland - Back To Hampden/Sneaky Shelly
TTITLE9=Dave Hardin - Baltimore, You're Home To Me
TTITLE10=Stewart Copeland - Thrift Shop Fashion Shoot
TTITLE11=Stan Ridgway and Stewart Copeland - Don't Drop The Soap (For Anyone Els
TTITLE11=e But Me)
TTITLE12=Stewart Copeland - New York Montage
TTITLE13=Damecus Metoyer and Stewart Copeland - Pecker Man
TTITLE14=The Grid - Swamp Thing
TTITLE15=The Rock-A-Teens - Woo-Hoo
EXTD=
EXTT0=
EXTT1=
EXTT2=
EXTT3=
EXTT4=
EXTT5=
EXTT6=
EXTT7=
EXTT8=
EXTT9=
EXTT10=
EXTT11=
EXTT12=
EXTT13=
EXTT14=
EXTT15=
PLAYORDER=
